<?xml version="1.0" standalone="no"?>
<!-- The icon set is based on Material Design icons by Google (https://github.com/google/material-design-icons) -->
<!DOCTYPE svg PUBLIC "-//W3C//DTD SVG 1.1//EN" "http://www.w3.org/Graphics/SVG/1.1/DTD/svg11.dtd">
<svg viewBox="0 0 48 48" style="background-color:#ffffff00" version="1.1"
  xmlns="http://www.w3.org/2000/svg" xmlns:xlink="http://www.w3.org/1999/xlink" xml:space="preserve"
>
  <g id="cacas" style="display:none">
    <path d="M 15 43 C 8.5 39.9 3.8 33.5 3.1 26 L 0.1 26 C 1.1 38.3 11.4 48 24 48 C 24.4 48 24.9 48 25.3 47.9 L 17.7 40.3 L 15 43 L 15 43 Z" fill="#000"/>
    <path d="M 32 26 C 32 27.1 31.1 28 30 28 L 28 28 L 28 20 L 30 20 C 31.1 20 32 20.9 32 22 L 32 26 M 30 16 L 24 16 L 24 32 L 30 32 C 33.3 32 36 29.3 36 26 L 36 22 C 36 18.7 33.3 16 30 16 L 30 16 Z"/>
    <path d="M 22 28 L 22 26 C 22 24.9 21.1 24 20 24 C 21.1 24 22 23.1 22 22 L 22 20 C 22 17.8 20.2 16 18 16 L 12 16 L 12 20 L 18 20 L 18 22 L 14 22 L 14 26 L 18 26 L 18 27.9 L 18 28 L 18 28 L 18 28 L 18 28 L 12 28 L 12 32 L 18 32 C 20.2 32 22 30.2 22 28 L 22 28 Z" />
    <path d="M 24 0 C 23.6 0 23.1 0 22.7 0.1 L 30.3 7.7 L 33 5 C 39.5 8.1 44.2 14.4 44.9 22 L 47.9 22 C 46.9 9.7 36.6 0 24 0 L 24 0 Z" />
  </g>
  <g id="caca" style="display:none">
    <path d="M13.23 10.56V10c-1.94 0-3.99.39-3.99 2.67 0 1.16.61 1.95 1.63 1.95.76 0 1.43-.47 1.86-1.22.52-.93.5-1.8.5-2.84m2.7 6.53c-.18.16-.43.17-.63.06-.89-.74-1.05-1.08-1.54-1.79-1.47 1.5-2.51 1.95-4.42 1.95-2.25 0-4.01-1.39-4.01-4.17 0-2.18 1.17-3.64 2.86-4.38 1.46-.64 3.49-.76 5.04-.93V7.5c0-.66.05-1.41-.33-1.96-.32-.49-.95-.7-1.5-.7-1.02 0-1.93.53-2.15 1.61-.05.24-.25.48-.47.49l-2.6-.28c-.22-.05-.46-.22-.4-.56.6-3.15 3.45-4.1 6-4.1 1.3 0 3 .35 4.03 1.33C17.11 4.55 17 6.18 17 7.95v4.17c0 1.25.5 1.81 1 2.48.17.25.21.54 0 .71l-2.06 1.78h-.01"/><path d="M20.16 19.54C18 21.14 14.82 22 12.1 22c-3.81 0-7.25-1.41-9.85-3.76-.2-.18-.02-.43.25-.29 2.78 1.63 6.25 2.61 9.83 2.61 2.41 0 5.07-.5 7.51-1.53.37-.16.66.24.32.51"/><path d="M21.07 18.5c-.28-.36-1.85-.17-2.57-.08-.19.02-.22-.16-.03-.3 1.24-.88 3.29-.62 3.53-.33.24.3-.07 2.35-1.24 3.32-.18.16-.35.07-.26-.11.26-.67.85-2.14.57-2.5z"/>
  </g>
  <g id="cacaa" style="display:none">
    <path d="M13 3.5c.73-.83 1.94-1.46 2.94-1.5.13 1.17-.34 2.35-1.04 3.19-.69.85-1.83 1.51-2.95 1.42-.15-1.15.41-2.35 1.05-3.11z"/><path d="M18.71 19.5c-.83 1.24-1.71 2.45-3.05 2.47-1.34.03-1.77-.79-3.29-.79-1.53 0-2 .77-3.27.82-1.31.05-2.3-1.32-3.14-2.53C4.25 17 2.94 12.45 4.7 9.39c.87-1.52 2.43-2.48 4.12-2.51 1.28-.02 2.5.87 3.29.87.78 0 2.26-1.07 3.81-.91.65.03 2.47.26 3.64 1.98-.09.06-2.17 1.28-2.15 3.81.03 3.02 2.65 4.03 2.68 4.04-.03.07-.42 1.44-1.38 2.83"/>
  </g>
</svg>
